# xmcd
#
# Track frame offsets: 
#        182
#        10205
#        22232
#        34982
#        44755
#        55757
#        68057
#        79332
#        91792
#        103515
#
# Disc length: 1510 seconds
#
# Revision: 4
# Processed by: cddbd v1.5.1PL0 Copyright (c) Steve Scherf et al.
# Submitted via: ExactAudioCopy v0.95a5
#
DISCID=8005e40a
DTITLE=John Lee Hooker - Whiskey and Wimmen
DYEAR=1975
DGENRE=Blues
TTITLE0=Dimples
TTITLE1=Whiskey and Wimmen
TTITLE2=I'm So Excited
TTITLE3=Onions
TTITLE4=No Shoes
TTITLE5=Drug Store Woman
TTITLE6=Boom Boom
TTITLE7=Hobo Blues
TTITLE8=Little Wheel
TTITLE9=Dusty Road
EXTD=YEAR: 1994
EXTT0=
EXTT1=
EXTT2=
EXTT3=
EXTT4=
EXTT5=
EXTT6=
EXTT7=
EXTT8=
EXTT9=
PLAYORDER=
